<?xml version="1.0" encoding="UTF-8" standalone="no"?>
<svg
   width="64"
   height="64"
   viewBox="0 0 16.933 16.933"
   version="1.1"
   id="svg311"
   sodipodi:docname="edit-link.svg"
   xml:space="preserve"
   inkscape:export-filename="vaprio.svg"
   inkscape:export-xdpi="96"
   inkscape:export-ydpi="96"
   inkscape:version="1.2.2 (b0a8486541, 2022-12-01)"
   xmlns:inkscape="http://www.inkscape.org/namespaces/inkscape"
   xmlns:sodipodi="http://sodipodi.sourceforge.net/DTD/sodipodi-0.dtd"
   xmlns="http://www.w3.org/2000/svg"
   xmlns:svg="http://www.w3.org/2000/svg"><defs
     id="defs315"><style
       id="current-color-scheme"
       type="text/css">
   .ColorScheme-Text { color:#aaaaaa; } .ColorScheme-Highlight { color:#5294e2; }
  </style></defs><sodipodi:namedview
     id="namedview313"
     pagecolor="#ffffff"
     bordercolor="#000000"
     borderopacity="0.25"
     inkscape:showpageshadow="2"
     inkscape:pageopacity="0.0"
     inkscape:pagecheckerboard="0"
     inkscape:deskcolor="#d1d1d1"
     showgrid="false"
     inkscape:zoom="12.9375"
     inkscape:cx="32.038647"
     inkscape:cy="32"
     inkscape:window-width="1920"
     inkscape:window-height="976"
     inkscape:window-x="0"
     inkscape:window-y="32"
     inkscape:window-maximized="1"
     inkscape:current-layer="svg311" /><path
     style="fill:#ffffff;stroke-width:0.892975"
     class="ColorScheme-Text"
     d="m 5.7878946,3.9686719 c -2.473612,0 -4.465004,1.9912811 -4.465004,4.4647557 0,2.4734754 1.991392,4.4647564 4.465004,4.4647564 h 1.786002 v -1.785903 h -1.786002 c -1.484167,0 -2.6790023,-1.1947684 -2.6790023,-2.6788534 0,-1.484085 1.1948353,-2.6788535 2.6790023,-2.6788535 h 1.786002 V 3.9686719 Z m 3.572003,0 V 5.7545741 H 11.1459 c 1.484167,0 2.679002,1.1947685 2.679002,2.6788535 0,1.484085 -1.194835,2.6788534 -2.679002,2.6788534 H 9.3598976 v 1.785903 H 11.1459 c 2.473612,0 4.465003,-1.991281 4.465003,-4.4647564 0,-2.4734746 -1.991391,-4.4647557 -4.465003,-4.4647557 z m -3.572003,3.5718047 v 1.785902 H 11.1459 v -1.785902 z"
     id="path269" /></svg>
