<?xml version="1.0" encoding="UTF-8" standalone="no"?>
<svg
   width="64"
   height="64"
   viewBox="0 0 16.933 16.933"
   version="1.1"
   id="svg6"
   sodipodi:docname="folder-mail.svg"
   xml:space="preserve"
   inkscape:version="1.2.2 (b0a8486541, 2022-12-01)"
   xmlns:inkscape="http://www.inkscape.org/namespaces/inkscape"
   xmlns:sodipodi="http://sodipodi.sourceforge.net/DTD/sodipodi-0.dtd"
   xmlns="http://www.w3.org/2000/svg"
   xmlns:svg="http://www.w3.org/2000/svg"><defs
     id="defs10"><style
       id="current-color-scheme"
       type="text/css">
   .ColorScheme-Text { color:#aaaaaa; } .ColorScheme-Highlight { color:#ef5350; }
  </style></defs><sodipodi:namedview
     id="namedview8"
     pagecolor="#ffffff"
     bordercolor="#000000"
     borderopacity="0.25"
     inkscape:showpageshadow="2"
     inkscape:pageopacity="0.0"
     inkscape:pagecheckerboard="0"
     inkscape:deskcolor="#d1d1d1"
     showgrid="false"
     inkscape:zoom="12.9375"
     inkscape:cx="31.188406"
     inkscape:cy="32"
     inkscape:window-width="1920"
     inkscape:window-height="976"
     inkscape:window-x="0"
     inkscape:window-y="32"
     inkscape:window-maximized="1"
     inkscape:current-layer="svg6" /><circle
     cx="8.4659996"
     cy="8.46"
     r="7.1440001"
     fill="#eeeeee"
     style="display:none;paint-order:stroke markers fill"
     id="circle2" /><path
     fill="#333333"
     d="m 8.465,3.941 a 4.66,4.66 0 0 0 -4.659,4.66 4.66,4.66 0 0 0 3.119,4.39 0.31,0.31 0 0 0 0.299,-0.307 v -0.666 h -0.31 c -0.46,0 -1.008,-0.122 -1.178,-0.622 C 5.509,10.731 4.863,10.568 5.05,10.465 a 0.36,0.36 0 0 1 0.23,-0.042 c 0.259,0.032 0.53,0.292 0.702,0.507 0.305,0.386 0.475,0.466 0.805,0.466 0.314,0 0.437,-0.077 0.437,-0.077 A 0.79,0.79 0 0 1 7.569,10.648 C 6.38,10.46 5.516,9.856 5.516,8.6 5.516,7.998 5.682,7.514 5.966,7.137 A 2.36,2.36 0 0 1 5.982,5.805 c 0.435,0 0.924,0.237 1.236,0.491 0.38,-0.12 0.801,-0.18 1.248,-0.18 0.447,0 0.869,0.06 1.252,0.179 0.31,-0.254 0.799,-0.49 1.234,-0.49 0.127,0.442 0.14,0.879 0.02,1.31 0.3,0.38 0.476,0.871 0.476,1.485 0,1.255 -0.883,1.862 -2.083,2.048 a 0.79,0.79 0 0 1 0.344,0.67 v 1.365 a 0.31,0.31 0 0 0 0.3,0.308 A 4.66,4.66 0 0 0 13.126,8.6 4.66,4.66 0 0 0 8.466,3.941 Z"
     id="path4"
     style="display:none" /><path
     style="fill:#ffffff;stroke-width:1.02052"
     class="ColorScheme-Text"
     d="M 15.61011,9.3594513 V 8.4665 c 0,-3.9450074 -3.198297,-7.1436094 -7.1436102,-7.1436094 -3.9453133,0 -7.1436092,3.1982961 -7.1436092,7.1436094 0,3.945313 3.1982959,7.143609 7.1436092,7.143609 h 4.2198322 c 0,0 0.882746,-0.126545 0.882746,-1.020516 0,-0.893971 -0.882746,-1.020515 -0.882746,-1.020515 H 8.4664998 c -2.8180517,0 -5.1025781,-2.284935 -5.1025781,-5.102578 0,-2.8180517 2.2845264,-5.102578 5.1025781,-5.102578 2.8176442,0 5.1025782,2.2845263 5.1025782,5.102578 -0.002,0.7028293 -0.148993,1.3976982 -0.432698,2.041031 h -1.139917 c 0.360242,-0.620065 0.550058,-1.3240167 0.552099,-2.041031 0,-2.2544209 -1.827743,-4.0820625 -4.0820622,-4.0820625 -2.2544209,0 -4.0820625,1.8276416 -4.0820625,4.0820625 0,2.254319 1.8276416,4.082062 4.0820625,4.082062 h 4.3627042 c 1.491994,0 2.780906,-1.709364 2.780906,-3.1891107 z M 8.4664998,6.4254686 c 1.1272615,0 2.0410312,0.9137698 2.0410312,2.0410314 0,1.1272615 -0.9137697,2.041031 -2.0410312,2.041031 -1.1272616,0 -2.0410314,-0.9137695 -2.0410314,-2.041031 0,-1.1272616 0.9137698,-2.0410314 2.0410314,-2.0410314 z"
     id="path274" /></svg>
