<?xml version="1.0" encoding="UTF-8" standalone="no"?>
<svg
   width="64"
   height="64"
   viewBox="0 0 16.933 16.933"
   version="1.1"
   id="svg311"
   sodipodi:docname="folder-network.svg"
   xml:space="preserve"
   inkscape:export-filename="vaprio.svg"
   inkscape:export-xdpi="96"
   inkscape:export-ydpi="96"
   inkscape:version="1.2.2 (b0a8486541, 2022-12-01)"
   xmlns:inkscape="http://www.inkscape.org/namespaces/inkscape"
   xmlns:sodipodi="http://sodipodi.sourceforge.net/DTD/sodipodi-0.dtd"
   xmlns="http://www.w3.org/2000/svg"
   xmlns:svg="http://www.w3.org/2000/svg"><defs
     id="defs315"><style
       id="current-color-scheme"
       type="text/css">.ColorScheme-Text { color:#aaaaaa; } .ColorScheme-Highlight { color:#5294e2; }</style></defs><sodipodi:namedview
     id="namedview313"
     pagecolor="#ffffff"
     bordercolor="#000000"
     borderopacity="0.25"
     inkscape:showpageshadow="2"
     inkscape:pageopacity="0.0"
     inkscape:pagecheckerboard="0"
     inkscape:deskcolor="#d1d1d1"
     showgrid="false"
     inkscape:zoom="12.9375"
     inkscape:cx="32.038647"
     inkscape:cy="32"
     inkscape:window-width="1920"
     inkscape:window-height="976"
     inkscape:window-x="0"
     inkscape:window-y="32"
     inkscape:window-maximized="1"
     inkscape:current-layer="svg311" /><g
     id="g288"
     transform="matrix(0.89300078,0,0,0.89300078,-1.3569054,-1.3629907)"><path
       class="ColorScheme-Text"
       d="m 11,3 a 8,8 0 0 0 -8,8 8,8 0 0 0 8,8 8,8 0 0 0 8,-8 8,8 0 0 0 -8,-8 z m 0,2 a 6,6 0 0 1 6,6 6,6 0 0 1 -6,6 6,6 0 0 1 -6,-6 6,6 0 0 1 6,-6 z"
       fill="currentColor"
       id="path5"
       style="fill:#ffffff" /><path
       class="ColorScheme-Text"
       d="m 10.508,6.0024 c 0.06603,-0.00691 0.14929,0.00394 0.2159,0 0.0079,0.031585 -0.04807,0.14398 -0.12337,0.30844 -0.47954,1.0476 -0.50675,2.2744 -0.06169,2.9301 0.08054,0.11889 0.15422,0.23204 0.15422,0.24675 0,0.014707 -0.08685,0.030795 -0.18506,0.030795 -0.23054,0 -0.4487,-0.14051 -0.89446,-0.49348 C 9.41552,8.868205 9.15809,8.736495 9.05836,8.716555 8.90174,8.685267 8.85999,8.698987 8.65739,8.901615 c -0.18851,0.18848 -0.24674,0.2901 -0.24674,0.46266 0,0.65431 0.77684,1.1744 2.2208,1.4804 1.9609,0.41559 2.4442,0.78873 2.4983,1.8198 0.0679,1.2929 -0.62043,2.2679 -2.1282,3.0226 -0.17996,0.09011 -0.29462,0.1251 -0.37012,0.15422 -0.03346,-0.003 -0.05912,0.003 -0.09248,0 -0.01283,-0.03997 -0.03079,-0.13271 -0.03079,-0.30844 0,-0.68673 -0.27067,-1.3936 -0.67855,-1.7889 -0.10949,-0.10612 -0.41604,-0.33099 -0.67856,-0.49349 -0.26252,-0.1625 -0.527,-0.35127 -0.58603,-0.43181 -0.097811,-0.13365 -0.10594,-0.21575 -0.030795,-0.46266 0.13695,-0.45092 0.29995,-0.70208 0.61686,-0.98699 0.16614,-0.14937 0.33331,-0.27463 0.37012,-0.27759 0.036815,-0.003 -0.21235,-0.07777 -0.58603,-0.15422 -0.37365,-0.07659 -0.92024,-0.237 -1.2029,-0.33927 -0.51677,-0.18699 -1.2145,-0.57953 -1.4804,-0.86362 C 6.24062,9.722264 6.230849,9.714171 6.221078,9.703511 c 0.3811,-1.5181 1.4506,-2.7623 2.8684,-3.3619 0.29667,-0.12548 0.60248,-0.21156 0.9253,-0.27759 0.1608,-0.032867 0.32746,-0.04481 0.49349,-0.061687 z m 4.6266,2.3133 c 0.11593,0.071656 0.55361,1.0186 0.67856,1.4804 0.16131,0.59633 0.14964,1.6283 0,2.2208 -0.05694,0.22547 -0.12995,0.4364 -0.15422,0.46266 -0.02427,0.02625 -0.11233,-0.12488 -0.2159,-0.30844 -0.10359,-0.18352 -0.43443,-0.57349 -0.7094,-0.86362 -0.79367,-0.83749 -0.91848,-1.2747 -0.58603,-1.9432 0.16766,-0.33705 0.89728,-1.1041 0.98698,-1.0487 z"
       fill="currentColor"
       id="path7"
       style="fill:#ffffff" /></g></svg>
