<?xml version="1.0" encoding="UTF-8" standalone="no"?>
<svg
   width="64"
   height="64"
   viewBox="0 0 16.933 16.933"
   version="1.1"
   id="svg311"
   sodipodi:docname="image2vector.svg"
   xml:space="preserve"
   inkscape:export-filename="vaprio.svg"
   inkscape:export-xdpi="96"
   inkscape:export-ydpi="96"
   inkscape:version="1.2.2 (b0a8486541, 2022-12-01)"
   xmlns:inkscape="http://www.inkscape.org/namespaces/inkscape"
   xmlns:sodipodi="http://sodipodi.sourceforge.net/DTD/sodipodi-0.dtd"
   xmlns="http://www.w3.org/2000/svg"
   xmlns:svg="http://www.w3.org/2000/svg"><defs
     id="defs315" /><sodipodi:namedview
     id="namedview313"
     pagecolor="#ffffff"
     bordercolor="#000000"
     borderopacity="0.25"
     inkscape:showpageshadow="2"
     inkscape:pageopacity="0.0"
     inkscape:pagecheckerboard="0"
     inkscape:deskcolor="#d1d1d1"
     showgrid="false"
     inkscape:zoom="12.9375"
     inkscape:cx="31.188406"
     inkscape:cy="32"
     inkscape:window-width="1920"
     inkscape:window-height="976"
     inkscape:window-x="0"
     inkscape:window-y="32"
     inkscape:window-maximized="1"
     inkscape:current-layer="svg311" /><circle
     cx="8.4659996"
     cy="8.46"
     r="7.1440001"
     fill="#eeeeee"
     style="display:none;paint-order:stroke markers fill"
     id="circle307" /><g
     id="svgg"
     transform="matrix(0.03212963,0,0,0.03247736,2.4390177,2.0838632)"
     style="display:none"><path
       id="path0"
       d="m 69.534,58.188 c -7.491,0.655 -14.301,4.794 -18.544,11.273 -5.522,8.431 -4.145,20.271 3.142,27.018 6.25,5.787 10.501,7.243 38.155,13.071 20.797,4.383 58.619,13.444 78.849,18.889 21.86,5.884 47.504,13.317 49.347,14.304 0.21,0.112 1.287,0.502 2.393,0.865 6.095,2.005 7.623,3.09 7.911,5.614 0.312,2.739 -2.375,3.861 -16.242,6.779 -43.931,9.245 -59.712,14.324 -70.318,22.628 -13.75,10.767 -15.337,28.585 -3.615,40.583 6.514,6.668 19.112,13.683 29.804,16.598 0.667,0.182 1.383,0.421 1.591,0.532 1.062,0.565 8.04,2.613 20.58,6.04 2.11,0.577 4.231,1.249 4.712,1.495 0.682,0.348 5.151,3.164 5.643,3.555 0.242,0.193 -3.057,3.242 -5.556,5.134 -10.358,7.846 -15.06,13.486 -18.175,21.802 -4.902,13.088 -2.474,23.493 9.165,39.268 16.058,21.766 23.969,25.659 35.18,17.313 8.211,-6.112 9.641,-15.202 3.972,-25.245 -2.169,-3.842 -4.317,-8.114 -4.789,-9.525 l -0.481,-1.434 1.087,-1.861 c 1.91,-3.271 5.352,-6.455 13.928,-12.885 12.595,-9.443 15.423,-11.841 19.026,-16.135 10.21,-12.169 11.842,-22.193 5.631,-34.582 -4.027,-8.034 -9.711,-13.528 -21.589,-20.87 -3.533,-2.183 -6.868,-4.492 -7.379,-5.107 -0.592,-0.714 4.284,-2.667 10.333,-4.139 5.034,-1.225 10.987,-2.583 17.273,-3.939 31.944,-6.891 42.753,-10.087 51.283,-15.161 16.804,-9.996 20.632,-27.9 9.154,-42.816 -7.236,-9.404 -23.464,-18.392 -50.664,-28.06 -1.875,-0.666 -4.278,-1.526 -5.341,-1.909 -14.559,-5.258 -45.72,-14.553 -69.318,-20.676 -2.938,-0.763 -8.256,-2.154 -11.818,-3.093 -21.682,-5.715 -45.392,-11.473 -73.409,-17.83 -2.688,-0.609 -6.37,-1.469 -8.182,-1.91 C 79.984,58.352 75.81,57.64 69.534,58.188"
       stroke="none"
       fill="#75cd01"
       fill-rule="evenodd" /><path
       id="path1"
       d=""
       stroke="none"
       fill="#000000"
       fill-rule="evenodd" /></g><g
     id="svgg-3"
     transform="matrix(0.03574942,0,0,0.03574094,1.3174925,1.3191287)"><path
       id="path0-6"
       d=""
       stroke="none"
       fill="#000000"
       fill-rule="evenodd" /><path
       id="path1-7"
       d="m 178.5,0.274 c -2.035,0.086 -3.7,0.329 -3.7,0.541 0,0.215 -1.417,0.385 -3.2,0.385 -1.867,0 -3.2,0.167 -3.2,0.4 0,0.22 -0.979,0.4 -2.176,0.4 -1.197,0 -2.288,0.18 -2.424,0.4 -0.136,0.22 -1.137,0.4 -2.224,0.4 -1.087,0 -1.976,0.18 -1.976,0.4 0,0.22 -0.799,0.4 -1.776,0.4 -0.977,0 -1.888,0.18 -2.024,0.4 -0.136,0.22 -0.957,0.4 -1.824,0.4 -0.867,0 -1.576,0.18 -1.576,0.4 0,0.22 -0.72,0.4 -1.6,0.4 -0.88,0 -1.6,0.18 -1.6,0.4 0,0.22 -0.619,0.4 -1.376,0.4 -0.757,0 -1.488,0.18 -1.624,0.4 -0.136,0.22 -0.777,0.4 -1.424,0.4 -0.647,0 -1.176,0.18 -1.176,0.4 0,0.22 -0.619,0.4 -1.376,0.4 -0.757,0 -1.488,0.18 -1.624,0.4 -0.136,0.22 -0.777,0.4 -1.424,0.4 -0.647,0 -1.176,0.18 -1.176,0.4 0,0.22 -0.54,0.4 -1.2,0.4 -0.66,0 -1.2,0.18 -1.2,0.4 0,0.22 -0.439,0.4 -0.976,0.4 -0.537,0 -1.088,0.18 -1.224,0.4 -0.136,0.22 -0.676,0.4 -1.2,0.4 -0.524,0 -1.064,0.18 -1.2,0.4 -0.136,0.22 -0.597,0.4 -1.024,0.4 -0.427,0 -0.776,0.18 -0.776,0.4 0,0.22 -0.54,0.4 -1.2,0.4 -0.66,0 -1.2,0.18 -1.2,0.4 0,0.22 -0.36,0.4 -0.8,0.4 -0.44,0 -0.8,0.18 -0.8,0.4 0,0.22 -0.54,0.4 -1.2,0.4 -0.66,0 -1.2,0.18 -1.2,0.4 0,0.22 -0.36,0.4 -0.8,0.4 -0.44,0 -0.8,0.18 -0.8,0.4 0,0.22 -0.439,0.4 -0.976,0.4 -0.537,0 -1.088,0.18 -1.224,0.4 -0.136,0.22 -0.597,0.4 -1.024,0.4 -0.427,0 -0.776,0.18 -0.776,0.4 0,0.22 -0.36,0.4 -0.8,0.4 -0.44,0 -0.8,0.18 -0.8,0.4 0,0.22 -0.36,0.4 -0.8,0.4 -0.44,0 -0.8,0.18 -0.8,0.4 0,0.22 -0.36,0.4 -0.8,0.4 -0.44,0 -0.8,0.18 -0.8,0.4 0,0.22 -0.36,0.4 -0.8,0.4 -0.44,0 -0.8,0.18 -0.8,0.4 0,0.22 -0.36,0.4 -0.8,0.4 -0.44,0 -0.8,0.18 -0.8,0.4 0,0.22 -0.36,0.4 -0.8,0.4 -0.44,0 -0.8,0.18 -0.8,0.4 0,0.22 -0.36,0.4 -0.8,0.4 -0.44,0 -0.8,0.18 -0.8,0.4 0,0.22 -0.36,0.4 -0.8,0.4 -0.44,0 -0.8,0.18 -0.8,0.4 0,0.22 -0.36,0.4 -0.8,0.4 -0.44,0 -0.8,0.18 -0.8,0.4 0,0.22 -0.236,0.4 -0.525,0.4 -0.288,0 -0.911,0.36 -1.383,0.8 -0.472,0.44 -1.136,0.8 -1.475,0.8 -0.339,0 -0.617,0.18 -0.617,0.4 0,0.22 -0.36,0.4 -0.8,0.4 -0.44,0 -0.8,0.18 -0.8,0.4 0,0.22 -0.236,0.4 -0.525,0.4 -0.288,0 -0.911,0.36 -1.383,0.8 -0.472,0.44 -1.096,0.8 -1.387,0.8 -0.291,0 -0.788,0.36 -1.105,0.8 -0.317,0.44 -0.857,0.8 -1.2,0.8 -0.343,0 -0.883,0.36 -1.2,0.8 -0.317,0.44 -0.857,0.8 -1.2,0.8 -0.343,0 -0.883,0.36 -1.2,0.8 -0.317,0.44 -0.857,0.8 -1.2,0.8 -0.343,0 -0.883,0.36 -1.2,0.8 -0.317,0.44 -0.857,0.8 -1.2,0.8 -0.343,0 -0.883,0.36 -1.2,0.8 -0.317,0.44 -0.78,0.8 -1.029,0.8 -0.249,0 -1.017,0.54 -1.708,1.2 -0.691,0.66 -1.416,1.2 -1.611,1.2 -0.196,0 -1.097,0.72 -2.004,1.6 -0.907,0.88 -1.807,1.6 -2,1.6 -0.193,0 -1.093,0.72 -2,1.6 -0.907,0.88 -1.815,1.6 -2.018,1.6 -0.203,0 -1.644,1.26 -3.202,2.8 -1.559,1.54 -2.997,2.8 -3.196,2.8 -0.473,0 -12.832,12.359 -12.832,12.832 0,0.199 -1.26,1.637 -2.8,3.196 -1.54,1.558 -2.8,2.999 -2.8,3.202 0,0.203 -0.72,1.111 -1.6,2.018 -0.88,0.907 -1.6,1.807 -1.6,2 0,0.193 -0.72,1.093 -1.6,2 -0.88,0.907 -1.6,1.808 -1.6,2.004 0,0.195 -0.54,0.92 -1.2,1.611 -0.66,0.691 -1.2,1.459 -1.2,1.708 0,0.249 -0.36,0.712 -0.8,1.029 -0.44,0.317 -0.8,0.857 -0.8,1.2 0,0.343 -0.36,0.883 -0.8,1.2 -0.44,0.317 -0.8,0.857 -0.8,1.2 0,0.343 -0.36,0.883 -0.8,1.2 -0.44,0.317 -0.8,0.857 -0.8,1.2 0,0.343 -0.36,0.883 -0.8,1.2 -0.44,0.317 -0.8,0.857 -0.8,1.2 0,0.343 -0.36,0.883 -0.8,1.2 -0.44,0.317 -0.8,0.814 -0.8,1.105 0,0.291 -0.36,0.915 -0.8,1.387 -0.44,0.472 -0.8,1.095 -0.8,1.383 0,0.289 -0.18,0.525 -0.4,0.525 -0.22,0 -0.4,0.36 -0.4,0.8 0,0.44 -0.18,0.8 -0.4,0.8 -0.22,0 -0.4,0.278 -0.4,0.617 0,0.339 -0.36,1.003 -0.8,1.475 -0.44,0.472 -0.8,1.095 -0.8,1.383 0,0.289 -0.18,0.525 -0.4,0.525 -0.22,0 -0.4,0.36 -0.4,0.8 0,0.44 -0.18,0.8 -0.4,0.8 -0.22,0 -0.4,0.36 -0.4,0.8 0,0.44 -0.18,0.8 -0.4,0.8 -0.22,0 -0.4,0.36 -0.4,0.8 0,0.44 -0.18,0.8 -0.4,0.8 -0.22,0 -0.4,0.36 -0.4,0.8 0,0.44 -0.18,0.8 -0.4,0.8 -0.22,0 -0.4,0.36 -0.4,0.8 0,0.44 -0.18,0.8 -0.4,0.8 -0.22,0 -0.4,0.36 -0.4,0.8 0,0.44 -0.18,0.8 -0.4,0.8 -0.22,0 -0.4,0.36 -0.4,0.8 0,0.44 -0.18,0.8 -0.4,0.8 -0.22,0 -0.4,0.36 -0.4,0.8 0,0.44 -0.18,0.8 -0.4,0.8 -0.22,0 -0.4,0.36 -0.4,0.8 0,0.44 -0.18,0.8 -0.4,0.8 -0.22,0 -0.4,0.349 -0.4,0.776 0,0.427 -0.18,0.888 -0.4,1.024 -0.22,0.136 -0.4,0.687 -0.4,1.224 0,0.537 -0.18,0.976 -0.4,0.976 -0.22,0 -0.4,0.36 -0.4,0.8 0,0.44 -0.18,0.8 -0.4,0.8 -0.22,0 -0.4,0.54 -0.4,1.2 0,0.66 -0.18,1.2 -0.4,1.2 -0.22,0 -0.4,0.36 -0.4,0.8 0,0.44 -0.18,0.8 -0.4,0.8 -0.22,0 -0.4,0.54 -0.4,1.2 0,0.66 -0.18,1.2 -0.4,1.2 -0.22,0 -0.4,0.349 -0.4,0.776 0,0.427 -0.18,0.888 -0.4,1.024 -0.22,0.136 -0.4,0.676 -0.4,1.2 0,0.524 -0.18,1.064 -0.4,1.2 -0.22,0.136 -0.4,0.687 -0.4,1.224 0,0.537 -0.18,0.976 -0.4,0.976 -0.22,0 -0.4,0.54 -0.4,1.2 0,0.66 -0.18,1.2 -0.4,1.2 -0.22,0 -0.4,0.529 -0.4,1.176 0,0.647 -0.18,1.288 -0.4,1.424 -0.22,0.136 -0.4,0.867 -0.4,1.624 0,0.757 -0.18,1.376 -0.4,1.376 -0.22,0 -0.4,0.529 -0.4,1.176 0,0.647 -0.18,1.288 -0.4,1.424 -0.22,0.136 -0.4,0.867 -0.4,1.624 0,0.757 -0.18,1.376 -0.4,1.376 -0.22,0 -0.4,0.72 -0.4,1.6 0,0.88 -0.18,1.6 -0.4,1.6 -0.22,0 -0.4,0.709 -0.4,1.576 0,0.867 -0.18,1.688 -0.4,1.824 -0.22,0.136 -0.4,1.047 -0.4,2.024 0,0.977 -0.18,1.776 -0.4,1.776 -0.22,0 -0.4,0.889 -0.4,1.976 0,1.087 -0.18,2.088 -0.4,2.224 -0.22,0.136 -0.4,1.227 -0.4,2.424 0,1.197 -0.18,2.176 -0.4,2.176 -0.233,0 -0.4,1.322 -0.4,3.167 0,2.177 -0.156,3.218 -0.5,3.333 -0.732,0.244 -0.732,49.956 0,50.2 0.344,0.115 0.5,1.156 0.5,3.333 0,1.845 0.167,3.167 0.4,3.167 0.22,0 0.4,0.979 0.4,2.176 0,1.197 0.18,2.288 0.4,2.424 0.22,0.136 0.4,1.137 0.4,2.224 0,1.087 0.18,1.976 0.4,1.976 0.22,0 0.4,0.799 0.4,1.776 0,0.977 0.18,1.888 0.4,2.024 0.22,0.136 0.4,0.957 0.4,1.824 0,0.867 0.18,1.576 0.4,1.576 0.22,0 0.4,0.72 0.4,1.6 0,0.88 0.18,1.6 0.4,1.6 0.22,0 0.4,0.619 0.4,1.376 0,0.757 0.18,1.488 0.4,1.624 0.22,0.136 0.4,0.777 0.4,1.424 0,0.647 0.18,1.176 0.4,1.176 0.22,0 0.4,0.619 0.4,1.376 0,0.757 0.18,1.488 0.4,1.624 0.22,0.136 0.4,0.777 0.4,1.424 0,0.647 0.18,1.176 0.4,1.176 0.22,0 0.4,0.54 0.4,1.2 0,0.66 0.18,1.2 0.4,1.2 0.22,0 0.4,0.439 0.4,0.976 0,0.537 0.18,1.088 0.4,1.224 0.22,0.136 0.4,0.676 0.4,1.2 0,0.524 0.18,1.064 0.4,1.2 0.22,0.136 0.4,0.597 0.4,1.024 0,0.427 0.18,0.776 0.4,0.776 0.22,0 0.4,0.54 0.4,1.2 0,0.66 0.18,1.2 0.4,1.2 0.22,0 0.4,0.36 0.4,0.8 0,0.44 0.18,0.8 0.4,0.8 0.22,0 0.4,0.54 0.4,1.2 0,0.66 0.18,1.2 0.4,1.2 0.22,0 0.4,0.36 0.4,0.8 0,0.44 0.18,0.8 0.4,0.8 0.22,0 0.4,0.439 0.4,0.976 0,0.537 0.18,1.088 0.4,1.224 0.22,0.136 0.4,0.597 0.4,1.024 0,0.427 0.18,0.776 0.4,0.776 0.22,0 0.4,0.36 0.4,0.8 0,0.44 0.18,0.8 0.4,0.8 0.22,0 0.4,0.36 0.4,0.8 0,0.44 0.18,0.8 0.4,0.8 0.22,0 0.4,0.36 0.4,0.8 0,0.44 0.18,0.8 0.4,0.8 0.22,0 0.4,0.36 0.4,0.8 0,0.44 0.18,0.8 0.4,0.8 0.22,0 0.4,0.36 0.4,0.8 0,0.44 0.18,0.8 0.4,0.8 0.22,0 0.4,0.36 0.4,0.8 0,0.44 0.18,0.8 0.4,0.8 0.22,0 0.4,0.36 0.4,0.8 0,0.44 0.18,0.8 0.4,0.8 0.22,0 0.4,0.36 0.4,0.8 0,0.44 0.18,0.8 0.4,0.8 0.22,0 0.4,0.36 0.4,0.8 0,0.44 0.18,0.8 0.4,0.8 0.22,0 0.4,0.236 0.4,0.525 0,0.288 0.36,0.911 0.8,1.383 0.44,0.472 0.8,1.136 0.8,1.475 0,0.339 0.18,0.617 0.4,0.617 0.22,0 0.4,0.36 0.4,0.8 0,0.44 0.18,0.8 0.4,0.8 0.22,0 0.4,0.236 0.4,0.525 0,0.288 0.36,0.911 0.8,1.383 0.44,0.472 0.8,1.096 0.8,1.387 0,0.291 0.36,0.788 0.8,1.105 0.44,0.317 0.8,0.857 0.8,1.2 0,0.343 0.36,0.883 0.8,1.2 0.44,0.317 0.8,0.857 0.8,1.2 0,0.343 0.36,0.883 0.8,1.2 0.44,0.317 0.8,0.857 0.8,1.2 0,0.343 0.36,0.883 0.8,1.2 0.44,0.317 0.8,0.857 0.8,1.2 0,0.343 0.36,0.883 0.8,1.2 0.44,0.317 0.8,0.78 0.8,1.029 0,0.249 0.54,1.017 1.2,1.708 0.66,0.691 1.2,1.416 1.2,1.611 0,0.196 0.72,1.097 1.6,2.004 0.88,0.907 1.6,1.807 1.6,2 0,0.193 0.72,1.093 1.6,2 0.88,0.907 1.6,1.815 1.6,2.018 0,0.203 1.26,1.644 2.8,3.202 1.54,1.559 2.8,2.997 2.8,3.196 0,0.473 12.359,12.832 12.832,12.832 0.199,0 1.637,1.26 3.196,2.8 1.558,1.54 2.999,2.8 3.202,2.8 0.203,0 1.111,0.72 2.018,1.6 0.907,0.88 1.807,1.6 2,1.6 0.193,0 1.093,0.72 2,1.6 0.907,0.88 1.808,1.6 2.004,1.6 0.195,0 0.92,0.54 1.611,1.2 0.691,0.66 1.459,1.2 1.708,1.2 0.249,0 0.712,0.36 1.029,0.8 0.317,0.44 0.857,0.8 1.2,0.8 0.343,0 0.883,0.36 1.2,0.8 0.317,0.44 0.857,0.8 1.2,0.8 0.343,0 0.883,0.36 1.2,0.8 0.317,0.44 0.857,0.8 1.2,0.8 0.343,0 0.883,0.36 1.2,0.8 0.317,0.44 0.857,0.8 1.2,0.8 0.343,0 0.883,0.36 1.2,0.8 0.317,0.44 0.814,0.8 1.105,0.8 0.291,0 0.915,0.36 1.387,0.8 0.472,0.44 1.095,0.8 1.383,0.8 0.289,0 0.525,0.18 0.525,0.4 0,0.22 0.36,0.4 0.8,0.4 0.44,0 0.8,0.18 0.8,0.4 0,0.22 0.278,0.4 0.617,0.4 0.339,0 1.003,0.36 1.475,0.8 0.472,0.44 1.095,0.8 1.383,0.8 0.289,0 0.525,0.18 0.525,0.4 0,0.22 0.36,0.4 0.8,0.4 0.44,0 0.8,0.18 0.8,0.4 0,0.22 0.36,0.4 0.8,0.4 0.44,0 0.8,0.18 0.8,0.4 0,0.22 0.36,0.4 0.8,0.4 0.44,0 0.8,0.18 0.8,0.4 0,0.22 0.36,0.4 0.8,0.4 0.44,0 0.8,0.18 0.8,0.4 0,0.22 0.36,0.4 0.8,0.4 0.44,0 0.8,0.18 0.8,0.4 0,0.22 0.36,0.4 0.8,0.4 0.44,0 0.8,0.18 0.8,0.4 0,0.22 0.36,0.4 0.8,0.4 0.44,0 0.8,0.18 0.8,0.4 0,0.22 0.36,0.4 0.8,0.4 0.44,0 0.8,0.18 0.8,0.4 0,0.22 0.36,0.4 0.8,0.4 0.44,0 0.8,0.18 0.8,0.4 0,0.22 0.349,0.4 0.776,0.4 0.427,0 0.888,0.18 1.024,0.4 0.136,0.22 0.687,0.4 1.224,0.4 0.537,0 0.976,0.18 0.976,0.4 0,0.22 0.36,0.4 0.8,0.4 0.44,0 0.8,0.18 0.8,0.4 0,0.22 0.54,0.4 1.2,0.4 0.66,0 1.2,0.18 1.2,0.4 0,0.22 0.36,0.4 0.8,0.4 0.44,0 0.8,0.18 0.8,0.4 0,0.22 0.54,0.4 1.2,0.4 0.66,0 1.2,0.18 1.2,0.4 0,0.22 0.349,0.4 0.776,0.4 0.427,0 0.888,0.18 1.024,0.4 0.136,0.22 0.676,0.4 1.2,0.4 0.524,0 1.064,0.18 1.2,0.4 0.136,0.22 0.687,0.4 1.224,0.4 0.537,0 0.976,0.18 0.976,0.4 0,0.22 0.54,0.4 1.2,0.4 0.66,0 1.2,0.18 1.2,0.4 0,0.22 0.529,0.4 1.176,0.4 0.647,0 1.288,0.18 1.424,0.4 0.136,0.22 0.867,0.4 1.624,0.4 0.757,0 1.376,0.18 1.376,0.4 0,0.22 0.529,0.4 1.176,0.4 0.647,0 1.288,0.18 1.424,0.4 0.136,0.22 0.867,0.4 1.624,0.4 0.757,0 1.376,0.18 1.376,0.4 0,0.22 0.72,0.4 1.6,0.4 0.88,0 1.6,0.18 1.6,0.4 0,0.22 0.709,0.4 1.576,0.4 0.867,0 1.688,0.18 1.824,0.4 0.136,0.22 1.047,0.4 2.024,0.4 0.977,0 1.776,0.18 1.776,0.4 0,0.222 1.067,0.4 2.4,0.4 1.333,0 2.4,0.178 2.4,0.4 0,0.22 0.9,0.4 2,0.4 1.1,0 2,0.18 2,0.4 0,0.233 1.322,0.4 3.167,0.4 2.177,0 3.218,0.156 3.333,0.5 0.244,0.732 49.956,0.732 50.2,0 0.115,-0.344 1.156,-0.5 3.333,-0.5 1.845,0 3.167,-0.167 3.167,-0.4 0,-0.22 0.9,-0.4 2,-0.4 1.1,0 2,-0.18 2,-0.4 0,-0.222 1.067,-0.4 2.4,-0.4 1.333,0 2.4,-0.178 2.4,-0.4 0,-0.22 0.799,-0.4 1.776,-0.4 0.977,0 1.888,-0.18 2.024,-0.4 0.136,-0.22 0.957,-0.4 1.824,-0.4 0.867,0 1.576,-0.18 1.576,-0.4 0,-0.22 0.72,-0.4 1.6,-0.4 0.88,0 1.6,-0.18 1.6,-0.4 0,-0.22 0.619,-0.4 1.376,-0.4 0.757,0 1.488,-0.18 1.624,-0.4 0.136,-0.22 0.777,-0.4 1.424,-0.4 0.647,0 1.176,-0.18 1.176,-0.4 0,-0.22 0.619,-0.4 1.376,-0.4 0.757,0 1.488,-0.18 1.624,-0.4 0.136,-0.22 0.777,-0.4 1.424,-0.4 0.647,0 1.176,-0.18 1.176,-0.4 0,-0.22 0.54,-0.4 1.2,-0.4 0.66,0 1.2,-0.18 1.2,-0.4 0,-0.22 0.439,-0.4 0.976,-0.4 0.537,0 1.088,-0.18 1.224,-0.4 0.136,-0.22 0.676,-0.4 1.2,-0.4 0.524,0 1.064,-0.18 1.2,-0.4 0.136,-0.22 0.597,-0.4 1.024,-0.4 0.427,0 0.776,-0.18 0.776,-0.4 0,-0.22 0.54,-0.4 1.2,-0.4 0.66,0 1.2,-0.18 1.2,-0.4 0,-0.22 0.36,-0.4 0.8,-0.4 0.44,0 0.8,-0.18 0.8,-0.4 0,-0.22 0.54,-0.4 1.2,-0.4 0.66,0 1.2,-0.18 1.2,-0.4 0,-0.22 0.36,-0.4 0.8,-0.4 0.44,0 0.8,-0.18 0.8,-0.4 0,-0.22 0.439,-0.4 0.976,-0.4 0.537,0 1.088,-0.18 1.224,-0.4 0.136,-0.22 0.597,-0.4 1.024,-0.4 0.427,0 0.776,-0.18 0.776,-0.4 0,-0.22 0.36,-0.4 0.8,-0.4 0.44,0 0.8,-0.18 0.8,-0.4 0,-0.22 0.36,-0.4 0.8,-0.4 0.44,0 0.8,-0.18 0.8,-0.4 0,-0.22 0.36,-0.4 0.8,-0.4 0.44,0 0.8,-0.18 0.8,-0.4 0,-0.22 0.36,-0.4 0.8,-0.4 0.44,0 0.8,-0.18 0.8,-0.4 0,-0.22 0.36,-0.4 0.8,-0.4 0.44,0 0.8,-0.18 0.8,-0.4 0,-0.22 0.36,-0.4 0.8,-0.4 0.44,0 0.8,-0.18 0.8,-0.4 0,-0.22 0.36,-0.4 0.8,-0.4 0.44,0 0.8,-0.18 0.8,-0.4 0,-0.22 0.36,-0.4 0.8,-0.4 0.44,0 0.8,-0.18 0.8,-0.4 0,-0.22 0.36,-0.4 0.8,-0.4 0.44,0 0.8,-0.18 0.8,-0.4 0,-0.22 0.236,-0.4 0.525,-0.4 0.288,0 0.911,-0.36 1.383,-0.8 0.472,-0.44 1.136,-0.8 1.475,-0.8 0.339,0 0.617,-0.18 0.617,-0.4 0,-0.22 0.36,-0.4 0.8,-0.4 0.44,0 0.8,-0.18 0.8,-0.4 0,-0.22 0.236,-0.4 0.525,-0.4 0.288,0 0.911,-0.36 1.383,-0.8 0.472,-0.44 1.096,-0.8 1.387,-0.8 0.291,0 0.788,-0.36 1.105,-0.8 0.317,-0.44 0.857,-0.8 1.2,-0.8 0.343,0 0.883,-0.36 1.2,-0.8 0.317,-0.44 0.857,-0.8 1.2,-0.8 0.343,0 0.883,-0.36 1.2,-0.8 0.317,-0.44 0.857,-0.8 1.2,-0.8 0.343,0 0.883,-0.36 1.2,-0.8 0.317,-0.44 0.857,-0.8 1.2,-0.8 0.343,0 0.883,-0.36 1.2,-0.8 0.317,-0.44 0.78,-0.8 1.029,-0.8 0.249,0 1.017,-0.54 1.708,-1.2 0.691,-0.66 1.416,-1.2 1.611,-1.2 0.196,0 1.097,-0.72 2.004,-1.6 0.907,-0.88 1.807,-1.6 2,-1.6 0.193,0 1.093,-0.72 2,-1.6 0.907,-0.88 1.816,-1.6 2.021,-1.6 0.205,0 1.826,-1.44 3.603,-3.2 1.776,-1.76 3.401,-3.2 3.61,-3.2 0.478,0 12.014,-11.562 12.014,-12.041 0,-0.194 1.26,-1.628 2.8,-3.187 1.54,-1.558 2.8,-2.999 2.8,-3.202 0,-0.203 0.72,-1.111 1.6,-2.018 0.88,-0.907 1.6,-1.807 1.6,-2 0,-0.193 0.72,-1.093 1.6,-2 0.88,-0.907 1.6,-1.808 1.6,-2.004 0,-0.195 0.54,-0.92 1.2,-1.611 0.66,-0.691 1.2,-1.459 1.2,-1.708 0,-0.249 0.36,-0.712 0.8,-1.029 0.44,-0.317 0.8,-0.857 0.8,-1.2 0,-0.343 0.36,-0.883 0.8,-1.2 0.44,-0.317 0.8,-0.857 0.8,-1.2 0,-0.343 0.36,-0.883 0.8,-1.2 0.44,-0.317 0.8,-0.857 0.8,-1.2 0,-0.343 0.36,-0.883 0.8,-1.2 0.44,-0.317 0.8,-0.857 0.8,-1.2 0,-0.343 0.36,-0.883 0.8,-1.2 0.44,-0.317 0.8,-0.814 0.8,-1.105 0,-0.291 0.36,-0.915 0.8,-1.387 0.44,-0.472 0.8,-1.095 0.8,-1.383 0,-0.289 0.18,-0.525 0.4,-0.525 0.22,0 0.4,-0.36 0.4,-0.8 0,-0.44 0.18,-0.8 0.4,-0.8 0.22,0 0.4,-0.278 0.4,-0.617 0,-0.339 0.36,-1.003 0.8,-1.475 0.44,-0.472 0.8,-1.095 0.8,-1.383 0,-0.289 0.18,-0.525 0.4,-0.525 0.22,0 0.4,-0.36 0.4,-0.8 0,-0.44 0.18,-0.8 0.4,-0.8 0.22,0 0.4,-0.36 0.4,-0.8 0,-0.44 0.18,-0.8 0.4,-0.8 0.22,0 0.4,-0.36 0.4,-0.8 0,-0.44 0.18,-0.8 0.4,-0.8 0.22,0 0.4,-0.36 0.4,-0.8 0,-0.44 0.18,-0.8 0.4,-0.8 0.22,0 0.4,-0.36 0.4,-0.8 0,-0.44 0.18,-0.8 0.4,-0.8 0.22,0 0.4,-0.36 0.4,-0.8 0,-0.44 0.18,-0.8 0.4,-0.8 0.22,0 0.4,-0.36 0.4,-0.8 0,-0.44 0.18,-0.8 0.4,-0.8 0.22,0 0.4,-0.36 0.4,-0.8 0,-0.44 0.18,-0.8 0.4,-0.8 0.22,0 0.4,-0.36 0.4,-0.8 0,-0.44 0.18,-0.8 0.4,-0.8 0.22,0 0.4,-0.349 0.4,-0.776 0,-0.427 0.18,-0.888 0.4,-1.024 0.22,-0.136 0.4,-0.687 0.4,-1.224 0,-0.537 0.18,-0.976 0.4,-0.976 0.22,0 0.4,-0.36 0.4,-0.8 0,-0.44 0.18,-0.8 0.4,-0.8 0.22,0 0.4,-0.54 0.4,-1.2 0,-0.66 0.18,-1.2 0.4,-1.2 0.22,0 0.4,-0.36 0.4,-0.8 0,-0.44 0.18,-0.8 0.4,-0.8 0.22,0 0.4,-0.54 0.4,-1.2 0,-0.66 0.18,-1.2 0.4,-1.2 0.22,0 0.4,-0.349 0.4,-0.776 0,-0.427 0.18,-0.888 0.4,-1.024 0.22,-0.136 0.4,-0.676 0.4,-1.2 0,-0.524 0.18,-1.064 0.4,-1.2 0.22,-0.136 0.4,-0.687 0.4,-1.224 0,-0.537 0.18,-0.976 0.4,-0.976 0.22,0 0.4,-0.54 0.4,-1.2 0,-0.66 0.18,-1.2 0.4,-1.2 0.22,0 0.4,-0.529 0.4,-1.176 0,-0.647 0.18,-1.288 0.4,-1.424 0.22,-0.136 0.4,-0.867 0.4,-1.624 0,-0.757 0.18,-1.376 0.4,-1.376 0.22,0 0.4,-0.529 0.4,-1.176 0,-0.647 0.18,-1.288 0.4,-1.424 0.22,-0.136 0.4,-0.867 0.4,-1.624 0,-0.757 0.18,-1.376 0.4,-1.376 0.22,0 0.4,-0.72 0.4,-1.6 0,-0.88 0.18,-1.6 0.4,-1.6 0.22,0 0.4,-0.709 0.4,-1.576 0,-0.867 0.18,-1.688 0.4,-1.824 0.22,-0.136 0.4,-1.047 0.4,-2.024 0,-0.977 0.18,-1.776 0.4,-1.776 0.222,0 0.4,-1.067 0.4,-2.4 0,-1.333 0.178,-2.4 0.4,-2.4 0.22,0 0.4,-0.9 0.4,-2 0,-1.1 0.18,-2 0.4,-2 0.233,0 0.4,-1.322 0.4,-3.167 0,-2.177 0.156,-3.218 0.5,-3.333 0.393,-0.131 0.5,-5.509 0.5,-25.1 0,-19.591 -0.107,-24.969 -0.5,-25.1 -0.344,-0.115 -0.5,-1.156 -0.5,-3.333 0,-1.845 -0.167,-3.167 -0.4,-3.167 -0.22,0 -0.4,-0.9 -0.4,-2 0,-1.1 -0.18,-2 -0.4,-2 -0.222,0 -0.4,-1.067 -0.4,-2.4 0,-1.333 -0.178,-2.4 -0.4,-2.4 -0.22,0 -0.4,-0.799 -0.4,-1.776 0,-0.977 -0.18,-1.888 -0.4,-2.024 -0.22,-0.136 -0.4,-0.957 -0.4,-1.824 0,-0.867 -0.18,-1.576 -0.4,-1.576 -0.22,0 -0.4,-0.72 -0.4,-1.6 0,-0.88 -0.18,-1.6 -0.4,-1.6 -0.22,0 -0.4,-0.619 -0.4,-1.376 0,-0.757 -0.18,-1.488 -0.4,-1.624 -0.22,-0.136 -0.4,-0.777 -0.4,-1.424 0,-0.647 -0.18,-1.176 -0.4,-1.176 -0.22,0 -0.4,-0.619 -0.4,-1.376 0,-0.757 -0.18,-1.488 -0.4,-1.624 -0.22,-0.136 -0.4,-0.777 -0.4,-1.424 0,-0.647 -0.18,-1.176 -0.4,-1.176 -0.22,0 -0.4,-0.54 -0.4,-1.2 0,-0.66 -0.18,-1.2 -0.4,-1.2 -0.22,0 -0.4,-0.439 -0.4,-0.976 0,-0.537 -0.18,-1.088 -0.4,-1.224 -0.22,-0.136 -0.4,-0.676 -0.4,-1.2 0,-0.524 -0.18,-1.064 -0.4,-1.2 -0.22,-0.136 -0.4,-0.597 -0.4,-1.024 0,-0.427 -0.18,-0.776 -0.4,-0.776 -0.22,0 -0.4,-0.54 -0.4,-1.2 0,-0.66 -0.18,-1.2 -0.4,-1.2 -0.22,0 -0.4,-0.36 -0.4,-0.8 0,-0.44 -0.18,-0.8 -0.4,-0.8 -0.22,0 -0.4,-0.54 -0.4,-1.2 0,-0.66 -0.18,-1.2 -0.4,-1.2 -0.22,0 -0.4,-0.36 -0.4,-0.8 0,-0.44 -0.18,-0.8 -0.4,-0.8 -0.22,0 -0.4,-0.439 -0.4,-0.976 0,-0.537 -0.18,-1.088 -0.4,-1.224 -0.22,-0.136 -0.4,-0.597 -0.4,-1.024 0,-0.427 -0.18,-0.776 -0.4,-0.776 -0.22,0 -0.4,-0.36 -0.4,-0.8 0,-0.44 -0.18,-0.8 -0.4,-0.8 -0.22,0 -0.4,-0.36 -0.4,-0.8 0,-0.44 -0.18,-0.8 -0.4,-0.8 -0.22,0 -0.4,-0.36 -0.4,-0.8 0,-0.44 -0.18,-0.8 -0.4,-0.8 -0.22,0 -0.4,-0.36 -0.4,-0.8 0,-0.44 -0.18,-0.8 -0.4,-0.8 -0.22,0 -0.4,-0.36 -0.4,-0.8 0,-0.44 -0.18,-0.8 -0.4,-0.8 -0.22,0 -0.4,-0.36 -0.4,-0.8 0,-0.44 -0.18,-0.8 -0.4,-0.8 -0.22,0 -0.4,-0.36 -0.4,-0.8 0,-0.44 -0.18,-0.8 -0.4,-0.8 -0.22,0 -0.4,-0.36 -0.4,-0.8 0,-0.44 -0.18,-0.8 -0.4,-0.8 -0.22,0 -0.4,-0.36 -0.4,-0.8 0,-0.44 -0.18,-0.8 -0.4,-0.8 -0.22,0 -0.4,-0.236 -0.4,-0.525 0,-0.288 -0.36,-0.911 -0.8,-1.383 -0.44,-0.472 -0.8,-1.136 -0.8,-1.475 0,-0.339 -0.18,-0.617 -0.4,-0.617 -0.22,0 -0.4,-0.36 -0.4,-0.8 0,-0.44 -0.18,-0.8 -0.4,-0.8 -0.22,0 -0.4,-0.236 -0.4,-0.525 0,-0.288 -0.36,-0.911 -0.8,-1.383 -0.44,-0.472 -0.8,-1.096 -0.8,-1.387 0,-0.291 -0.36,-0.788 -0.8,-1.105 -0.44,-0.317 -0.8,-0.857 -0.8,-1.2 0,-0.343 -0.36,-0.883 -0.8,-1.2 -0.44,-0.317 -0.8,-0.857 -0.8,-1.2 0,-0.343 -0.36,-0.883 -0.8,-1.2 -0.44,-0.317 -0.8,-0.857 -0.8,-1.2 0,-0.343 -0.36,-0.883 -0.8,-1.2 -0.44,-0.317 -0.8,-0.857 -0.8,-1.2 0,-0.343 -0.36,-0.883 -0.8,-1.2 -0.44,-0.317 -0.8,-0.78 -0.8,-1.029 0,-0.249 -0.54,-1.017 -1.2,-1.708 -0.66,-0.691 -1.2,-1.416 -1.2,-1.611 0,-0.196 -0.72,-1.097 -1.6,-2.004 -0.88,-0.907 -1.6,-1.807 -1.6,-2 0,-0.193 -0.72,-1.093 -1.6,-2 -0.88,-0.907 -1.6,-1.815 -1.6,-2.018 0,-0.203 -1.26,-1.644 -2.8,-3.202 -1.54,-1.559 -2.8,-2.997 -2.8,-3.196 0,-0.473 -12.359,-12.832 -12.832,-12.832 -0.199,0 -1.637,-1.26 -3.196,-2.8 -1.558,-1.54 -2.999,-2.8 -3.202,-2.8 -0.203,0 -1.111,-0.72 -2.018,-1.6 -0.907,-0.88 -1.807,-1.6 -2,-1.6 -0.193,0 -1.093,-0.72 -2,-1.6 -0.907,-0.88 -1.808,-1.6 -2.004,-1.6 -0.195,0 -0.92,-0.54 -1.611,-1.2 -0.691,-0.66 -1.459,-1.2 -1.708,-1.2 -0.249,0 -0.712,-0.36 -1.029,-0.8 -0.317,-0.44 -0.857,-0.8 -1.2,-0.8 -0.343,0 -0.883,-0.36 -1.2,-0.8 -0.317,-0.44 -0.857,-0.8 -1.2,-0.8 -0.343,0 -0.883,-0.36 -1.2,-0.8 -0.317,-0.44 -0.857,-0.8 -1.2,-0.8 -0.343,0 -0.883,-0.36 -1.2,-0.8 -0.317,-0.44 -0.857,-0.8 -1.2,-0.8 -0.343,0 -0.883,-0.36 -1.2,-0.8 -0.317,-0.44 -0.814,-0.8 -1.105,-0.8 -0.291,0 -0.915,-0.36 -1.387,-0.8 -0.472,-0.44 -1.095,-0.8 -1.383,-0.8 -0.289,0 -0.525,-0.18 -0.525,-0.4 0,-0.22 -0.36,-0.4 -0.8,-0.4 -0.44,0 -0.8,-0.18 -0.8,-0.4 0,-0.22 -0.278,-0.4 -0.617,-0.4 -0.339,0 -1.003,-0.36 -1.475,-0.8 -0.472,-0.44 -1.095,-0.8 -1.383,-0.8 -0.289,0 -0.525,-0.18 -0.525,-0.4 0,-0.22 -0.36,-0.4 -0.8,-0.4 -0.44,0 -0.8,-0.18 -0.8,-0.4 0,-0.22 -0.36,-0.4 -0.8,-0.4 -0.44,0 -0.8,-0.18 -0.8,-0.4 0,-0.22 -0.36,-0.4 -0.8,-0.4 -0.44,0 -0.8,-0.18 -0.8,-0.4 0,-0.22 -0.36,-0.4 -0.8,-0.4 -0.44,0 -0.8,-0.18 -0.8,-0.4 0,-0.22 -0.36,-0.4 -0.8,-0.4 -0.44,0 -0.8,-0.18 -0.8,-0.4 0,-0.22 -0.36,-0.4 -0.8,-0.4 -0.44,0 -0.8,-0.18 -0.8,-0.4 0,-0.22 -0.36,-0.4 -0.8,-0.4 -0.44,0 -0.8,-0.18 -0.8,-0.4 0,-0.22 -0.36,-0.4 -0.8,-0.4 -0.44,0 -0.8,-0.18 -0.8,-0.4 0,-0.22 -0.36,-0.4 -0.8,-0.4 -0.44,0 -0.8,-0.18 -0.8,-0.4 0,-0.22 -0.349,-0.4 -0.776,-0.4 -0.427,0 -0.888,-0.18 -1.024,-0.4 -0.136,-0.22 -0.687,-0.4 -1.224,-0.4 -0.537,0 -0.976,-0.18 -0.976,-0.4 0,-0.22 -0.36,-0.4 -0.8,-0.4 -0.44,0 -0.8,-0.18 -0.8,-0.4 0,-0.22 -0.54,-0.4 -1.2,-0.4 -0.66,0 -1.2,-0.18 -1.2,-0.4 0,-0.22 -0.36,-0.4 -0.8,-0.4 -0.44,0 -0.8,-0.18 -0.8,-0.4 0,-0.22 -0.54,-0.4 -1.2,-0.4 -0.66,0 -1.2,-0.18 -1.2,-0.4 0,-0.22 -0.349,-0.4 -0.776,-0.4 -0.427,0 -0.888,-0.18 -1.024,-0.4 -0.136,-0.22 -0.676,-0.4 -1.2,-0.4 -0.524,0 -1.064,-0.18 -1.2,-0.4 -0.136,-0.22 -0.687,-0.4 -1.224,-0.4 -0.537,0 -0.976,-0.18 -0.976,-0.4 0,-0.22 -0.54,-0.4 -1.2,-0.4 -0.66,0 -1.2,-0.18 -1.2,-0.4 0,-0.22 -0.529,-0.4 -1.176,-0.4 -0.647,0 -1.288,-0.18 -1.424,-0.4 -0.136,-0.22 -0.867,-0.4 -1.624,-0.4 -0.757,0 -1.376,-0.18 -1.376,-0.4 0,-0.22 -0.529,-0.4 -1.176,-0.4 -0.647,0 -1.288,-0.18 -1.424,-0.4 C 253.664,6.18 252.933,6 252.176,6 251.419,6 250.8,5.82 250.8,5.6 c 0,-0.22 -0.72,-0.4 -1.6,-0.4 -0.88,0 -1.6,-0.18 -1.6,-0.4 0,-0.22 -0.709,-0.4 -1.576,-0.4 -0.867,0 -1.688,-0.18 -1.824,-0.4 -0.136,-0.22 -1.047,-0.4 -2.024,-0.4 -0.977,0 -1.776,-0.18 -1.776,-0.4 0,-0.22 -0.889,-0.4 -1.976,-0.4 -1.087,0 -2.088,-0.18 -2.224,-0.4 C 236.064,2.18 234.973,2 233.776,2 232.579,2 231.6,1.82 231.6,1.6 c 0,-0.233 -1.322,-0.4 -3.167,-0.4 -2.129,0 -3.219,-0.159 -3.328,-0.486 C 224.944,0.233 187.802,-0.118 178.5,0.274 M 300,108.581 c 42.223,4.835 68.67,42.055 60.836,85.619 -4.025,22.386 -20.551,42.341 -42.236,51 -0.44,0.176 -1.43,0.536 -2.2,0.8 -0.77,0.264 -1.76,0.629 -2.2,0.81 -0.974,0.401 -6.648,1.751 -10.2,2.427 -1.557,0.297 -8.134,0.589 -16.4,0.729 l -13.8,0.234 -0.256,11.6 c -0.249,11.32 -0.47,14.56 -1.128,16.6 -0.178,0.55 -0.562,1.81 -0.853,2.8 -2.465,8.365 -10.555,16.501 -19.398,19.506 -5.892,2.002 -1.018,1.894 -85.765,1.894 -83.599,0 -79.703,0.076 -85.2,-1.671 -9.343,-2.971 -17.006,-10.897 -20.315,-21.012 L 59.8,276.6 v -78.4 -78.4 l 1.095,-2.264 c 2.21,-4.568 6.37,-7.931 11.094,-8.969 3.556,-0.78 221.188,-0.768 228.011,0.014 m -26.4,70.471 v 34.252 l 12.1,-0.205 12.1,-0.206 3.656,-1.235 c 8.375,-2.832 15.781,-8.637 19.21,-15.058 0.47,-0.88 1.195,-2.23 1.613,-3 0.417,-0.77 0.993,-2.21 1.281,-3.2 0.288,-0.99 0.673,-2.189 0.857,-2.665 3.112,-8.064 0.03,-22.011 -6.676,-30.207 -7.852,-9.597 -16.491,-12.736 -35.041,-12.731 l -9.1,0.003 v 34.252"
       stroke="none"
       fill="#139ce0"
       fill-rule="evenodd" /><path
       id="path2"
       d="m 71.989,108.567 c -4.724,1.038 -8.884,4.401 -11.094,8.969 L 59.8,119.8 v 78.4 78.4 l 1.085,3.317 c 3.309,10.115 10.972,18.041 20.315,21.012 5.497,1.747 1.601,1.671 85.2,1.671 84.747,0 79.873,0.108 85.765,-1.894 8.843,-3.005 16.933,-11.141 19.398,-19.506 0.291,-0.99 0.675,-2.25 0.853,-2.8 0.658,-2.04 0.879,-5.28 1.128,-16.6 l 0.256,-11.6 13.8,-0.234 c 8.266,-0.14 14.843,-0.432 16.4,-0.729 3.552,-0.676 9.226,-2.026 10.2,-2.427 0.44,-0.181 1.43,-0.546 2.2,-0.81 22.277,-7.65 40.269,-28.622 44.436,-51.8 C 368.67,150.636 342.223,113.416 300,108.581 293.177,107.799 75.545,107.787 71.989,108.567 M 295,145.229 c 16.367,2.224 28.004,13.722 30.242,29.88 0.514,3.711 0.086,10.267 -0.825,12.626 -0.184,0.476 -0.569,1.675 -0.857,2.665 -0.288,0.99 -0.864,2.43 -1.281,3.2 -0.418,0.77 -1.143,2.12 -1.613,3 -3.429,6.421 -10.835,12.226 -19.21,15.058 l -3.656,1.235 -12.1,0.206 -12.1,0.205 V 179.052 144.8 l 9.1,-0.003 c 5.005,-0.001 10.54,0.193 12.3,0.432 m -162.769,6.405 c 3.878,0.385 5.596,0.705 10.441,1.944 6.642,1.698 13.854,7.806 17.323,14.67 0.987,1.954 1.838,3.623 1.89,3.709 0.235,0.386 1.181,-0.832 1.646,-2.118 5.275,-14.586 28.849,-23.105 44.765,-16.177 0.932,0.406 1.797,0.738 1.922,0.738 2.313,0 9.785,7.66 12.29,12.6 11.074,21.837 2.95,42.099 -28.312,70.608 -1.323,1.205 -3.393,3.078 -4.6,4.161 -1.208,1.083 -3.186,2.886 -4.396,4.008 -1.21,1.121 -3.19,2.843 -4.4,3.825 -1.21,0.983 -2.29,1.888 -2.4,2.011 -0.11,0.124 -2.09,1.738 -4.4,3.587 -2.31,1.849 -4.29,3.467 -4.4,3.595 -0.177,0.207 -5.746,4.698 -7.13,5.75 -0.347,0.263 -0.625,0.267 -0.8,0.01 -0.149,-0.216 -2.16,-1.906 -4.47,-3.755 -2.31,-1.849 -4.29,-3.469 -4.4,-3.6 -0.11,-0.131 -2.09,-1.745 -4.4,-3.587 -4.183,-3.337 -8.616,-7.159 -12.8,-11.036 -1.21,-1.122 -3.19,-2.91 -4.4,-3.974 -7.84,-6.894 -19.675,-19.768 -25.308,-27.529 -5.822,-8.024 -8.319,-15.723 -8.324,-25.674 -0.01,-19.676 11.679,-33.319 29.263,-34.151 0.566,-0.027 2.996,0.146 5.4,0.385"
       stroke="none"
       fill="#ffffff"
       fill-rule="evenodd" /><path
       id="path3"
       d="m 123.4,151.633 c -4.75,0.664 -7.982,1.882 -12,4.523 -14.285,9.391 -18.293,32.12 -8.776,49.766 3.959,7.34 17.935,23.324 28.576,32.681 1.21,1.064 3.19,2.852 4.4,3.974 4.184,3.877 8.617,7.699 12.8,11.036 2.31,1.842 4.29,3.456 4.4,3.587 0.11,0.131 2.09,1.751 4.4,3.6 2.31,1.849 4.321,3.539 4.47,3.755 0.175,0.257 0.453,0.253 0.8,-0.01 1.384,-1.052 6.953,-5.543 7.13,-5.75 0.11,-0.128 2.09,-1.746 4.4,-3.595 2.31,-1.849 4.29,-3.463 4.4,-3.587 0.11,-0.123 1.19,-1.028 2.4,-2.011 1.21,-0.982 3.19,-2.704 4.4,-3.825 1.21,-1.122 3.188,-2.925 4.396,-4.008 32.473,-29.117 41.514,-45.951 35.966,-66.969 -1.615,-6.12 -4.667,-11.599 -8.547,-15.346 -1.836,-1.772 -6.249,-5.054 -6.797,-5.054 -0.125,0 -0.99,-0.332 -1.922,-0.738 -15.916,-6.928 -39.49,1.591 -44.765,16.177 -0.465,1.286 -1.411,2.504 -1.646,2.118 -0.052,-0.086 -0.903,-1.755 -1.89,-3.709 -3.469,-6.864 -10.681,-12.972 -17.323,-14.67 -4.845,-1.239 -6.563,-1.559 -10.441,-1.944 -4.851,-0.482 -5.391,-0.482 -8.831,-10e-4"
       stroke="none"
       fill="#ff374b"
       fill-rule="evenodd" /></g></svg>
